<svg xmlns="http://www.w3.org/2000/svg" width="114" height="115" viewBox="0 0 114 115">
<g>
<path d="M 23.00 24.00 C23.00,24.55 22.07,25.00 20.94,25.00 C19.81,25.00 19.16,24.55 19.50,24.00 C19.84,23.45 20.77,23.00 21.56,23.00 C22.35,23.00 23.00,23.45 23.00,24.00 Z" fill="rgb(215,205,191)"/>
<path d="M 109.41 73.92 C107.28,76.46 106.08,77.00 102.63,77.00 C98.57,77.00 94.86,75.23 92.22,72.05 C91.40,71.06 91.06,68.42 91.28,64.75 C91.47,61.59 91.29,59.00 90.89,59.00 C89.37,59.00 86.88,62.33 86.33,65.12 C86.01,66.70 85.30,68.00 84.76,68.00 C84.21,68.00 84.04,66.99 84.37,65.75 C84.70,64.51 84.98,61.81 84.99,59.75 C85.00,57.12 85.44,56.00 86.48,56.00 C87.29,56.00 89.43,55.10 91.23,54.00 C97.38,50.25 108.46,52.33 110.90,57.69 C111.51,59.01 112.00,62.51 112.00,65.47 C112.00,69.80 111.49,71.45 109.41,73.92 ZM 97.30 73.69 C101.75,76.73 103.68,76.52 107.60,72.60 C112.42,67.78 112.35,63.15 107.39,58.72 C103.54,55.29 99.53,53.12 96.87,53.05 C93.91,52.96 91.08,64.90 93.05,69.20 C93.62,70.46 95.54,72.48 97.30,73.69 ZM 23.00 24.00 C23.00,23.61 22.68,23.28 22.21,23.11 C22.95,23.04 23.86,23.00 24.92,23.00 C31.30,23.00 34.51,20.50 35.42,14.80 C35.92,11.62 36.33,10.91 37.03,12.02 C37.55,12.83 37.98,14.51 37.98,15.74 C38.01,19.03 40.95,21.91 44.97,22.57 C50.80,23.53 51.81,24.09 49.50,25.04 C48.40,25.49 46.33,25.89 44.90,25.93 C42.23,26.00 38.48,29.15 39.66,30.33 C40.03,30.70 42.17,31.03 44.42,31.07 C47.35,31.12 47.96,31.35 46.57,31.90 C45.22,32.43 45.00,32.88 45.83,33.40 C46.49,33.80 46.77,34.56 46.46,35.07 C46.14,35.58 46.36,36.00 46.94,36.00 C47.52,36.00 48.00,36.78 48.00,37.74 C48.00,39.13 47.49,38.93 45.46,36.74 C42.55,33.60 39.32,33.21 37.39,35.75 C36.13,37.42 36.06,37.42 36.03,35.75 C36.00,33.77 33.96,33.44 32.26,35.14 C31.42,35.98 30.71,35.86 29.49,34.64 C27.45,32.59 24.63,32.53 23.00,34.50 C22.32,35.33 20.93,36.00 19.92,36.00 C18.92,36.00 17.28,37.18 16.30,38.62 C15.31,40.06 12.77,43.10 10.66,45.37 L 6.82 49.50 L 9.07 45.29 C12.89,38.15 23.65,31.07 30.75,31.02 C32.87,31.01 34.00,30.51 34.00,29.59 C34.00,28.70 34.70,28.37 35.91,28.69 C40.11,29.79 41.07,21.79 36.90,20.47 C34.00,19.55 32.09,21.60 32.54,25.15 C32.86,27.65 32.68,27.98 31.53,27.03 C30.77,26.39 27.64,25.61 24.59,25.30 C23.50,25.18 22.59,25.05 21.86,24.89 C22.54,24.73 23.00,24.39 23.00,24.00 ZM 57.03 84.15 L 57.00 99.80 L 54.00 100.85 C52.18,101.49 51.00,101.52 51.00,100.95 C51.00,100.43 51.34,100.00 51.75,99.99 C53.87,99.97 55.16,93.45 55.64,80.40 C56.26,63.30 56.10,63.00 46.50,63.00 C40.22,63.00 37.00,64.45 37.00,67.27 C37.00,68.94 35.35,66.91 34.55,64.25 L 33.87 62.00 L 46.93 62.00 C60.77,62.00 61.70,62.37 58.53,66.56 C57.39,68.07 57.06,71.98 57.03,84.15 ZM 89.42 102.13 C88.79,103.14 64.66,103.33 63.66,102.33 C63.30,101.96 63.63,100.95 64.41,100.08 C65.19,99.21 66.01,97.15 66.23,95.50 C66.54,93.08 66.77,92.84 67.42,94.25 C67.86,95.21 67.87,96.79 67.46,97.75 C65.67,101.88 65.88,102.00 75.01,102.00 L 83.84 102.00 L 84.49 99.02 C84.85,97.39 84.89,95.63 84.57,95.12 C84.26,94.60 84.42,93.13 84.93,91.84 C85.75,89.80 85.88,90.02 85.94,93.60 C85.98,96.34 86.65,98.28 87.98,99.48 C89.06,100.46 89.71,101.66 89.42,102.13 ZM 40.00 102.70 C40.00,103.63 38.34,103.98 34.25,103.92 C26.55,103.82 25.41,103.31 27.55,100.94 C28.92,99.44 29.03,98.52 28.17,96.05 C26.84,92.25 28.08,92.02 29.73,95.75 C31.30,99.29 34.70,101.49 36.40,100.08 C37.81,98.91 40.00,100.51 40.00,102.70 ZM 24.93 7.11 L 27.35 9.10 L 24.68 11.78 C23.05,13.40 22.00,13.92 22.00,13.09 C22.00,12.34 21.21,11.13 20.25,10.42 C18.60,9.19 18.61,9.01 20.50,7.12 C22.50,5.12 22.50,5.12 24.93,7.11 ZM 66.87 63.25 C67.03,64.76 66.89,66.00 66.58,66.00 C66.26,66.00 66.00,65.16 66.00,64.13 C66.00,63.11 65.08,61.10 63.95,59.67 L 61.90 57.06 L 64.20 56.59 C65.47,56.32 68.75,55.88 71.50,55.61 L 76.50 55.11 L 72.50 56.20 C67.95,57.43 66.47,59.29 66.87,63.25 ZM 29.27 39.69 C28.30,41.16 26.72,46.00 25.76,50.44 L 24.03 58.50 L 24.46 51.21 C24.88,44.10 27.70,37.00 30.10,37.00 C30.62,37.00 30.25,38.21 29.27,39.69 ZM 54.98 47.72 C54.98,49.25 54.57,51.14 54.07,51.91 C53.41,52.96 52.85,52.24 51.93,49.16 C50.59,44.69 51.00,43.40 53.46,44.35 C54.34,44.68 54.99,46.12 54.98,47.72 ZM 57.53 34.63 C56.60,34.99 55.42,36.23 54.93,37.39 C54.07,39.38 54.02,39.36 54.12,37.00 C54.29,32.80 54.07,32.16 52.25,31.69 C51.29,31.44 51.91,31.18 53.63,31.12 C57.35,30.98 60.25,33.58 57.53,34.63 ZM 14.20 94.80 C14.86,95.46 15.11,96.00 14.75,96.00 C13.95,96.00 9.71,90.38 7.96,87.01 C6.75,84.67 6.86,84.70 9.84,87.51 C11.58,89.15 13.00,91.19 13.00,92.05 C13.00,92.90 13.54,94.14 14.20,94.80 ZM 6.92 52.56 C6.97,54.24 6.34,56.49 5.53,57.56 C3.63,60.07 3.62,57.88 5.50,53.00 L 6.85 49.50 ZM 86.00 53.50 C86.00,55.12 84.63,55.30 81.55,54.10 C79.75,53.39 79.79,53.29 82.05,52.68 C85.58,51.74 86.00,51.83 86.00,53.50 ZM 6.00 75.00 C6.00,76.04 5.55,77.16 5.00,77.50 C4.42,77.86 4.00,76.82 4.00,75.00 C4.00,73.18 4.42,72.14 5.00,72.50 C5.55,72.84 6.00,73.96 6.00,75.00 Z" fill="rgb(179,160,134)"/>
<path d="M 29.27 39.69 C30.25,38.21 30.62,37.00 30.10,37.00 C27.70,37.00 24.88,44.10 24.46,51.21 L 24.03 58.50 L 25.76 50.44 C25.96,49.51 26.19,48.57 26.43,47.65 C25.15,53.07 24.57,59.96 24.66,68.50 C24.78,81.12 25.85,87.84 28.77,93.92 C27.67,92.27 27.12,93.05 28.17,96.05 C29.03,98.52 28.92,99.44 27.55,100.94 C26.79,101.79 26.44,102.40 26.66,102.83 C25.55,102.51 24.49,102.11 23.50,101.65 C20.29,100.15 17.41,98.20 14.91,95.84 C14.90,95.63 14.64,95.24 14.20,94.80 C13.54,94.14 13.00,92.90 13.00,92.05 C13.00,91.19 11.58,89.15 9.84,87.51 C8.61,86.35 7.87,85.67 7.51,85.42 C7.18,84.70 6.86,83.95 6.57,83.19 C5.70,80.90 5.10,79.21 4.71,77.56 C4.80,77.58 4.90,77.56 5.00,77.50 C5.55,77.16 6.00,76.04 6.00,75.00 C6.00,73.96 5.55,72.84 5.00,72.50 C4.61,72.26 4.29,72.64 4.13,73.46 C4.00,71.40 4.05,68.88 4.16,65.22 C4.25,62.45 4.34,60.33 4.49,58.58 C4.73,58.49 5.08,58.16 5.53,57.56 C6.34,56.49 6.97,54.24 6.92,52.56 L 6.85 49.71 C6.93,49.55 7.01,49.38 7.09,49.21 L 10.66 45.37 C12.77,43.10 15.31,40.06 16.30,38.62 C17.28,37.18 18.92,36.00 19.92,36.00 C20.93,36.00 22.32,35.33 23.00,34.50 C24.63,32.53 27.45,32.59 29.49,34.64 C30.71,35.86 31.42,35.98 32.26,35.14 C33.09,34.31 33.99,33.96 34.71,34.05 C33.60,34.24 31.95,35.71 30.24,38.25 C29.32,39.60 28.53,41.17 27.84,42.97 C28.36,41.48 28.87,40.30 29.27,39.69 ZM 66.87 63.25 C66.47,59.29 67.95,57.43 72.50,56.20 L 76.50 55.11 L 71.50 55.61 C68.75,55.88 65.47,56.32 64.20,56.59 L 63.62 56.71 C64.78,56.23 67.30,55.95 71.85,55.46 C75.05,55.12 78.72,54.31 80.43,53.59 C80.63,53.72 81.01,53.88 81.55,54.10 C84.49,55.25 85.87,55.13 85.99,53.71 C86.00,53.80 86.00,53.90 86.00,54.00 C86.00,55.30 86.30,55.93 87.15,55.89 C86.88,55.96 86.65,56.00 86.48,56.00 C85.44,56.00 85.00,57.12 84.99,59.75 C84.98,61.81 84.70,64.51 84.37,65.75 C84.04,66.99 84.21,68.00 84.76,68.00 C85.30,68.00 86.01,66.70 86.33,65.12 C86.50,64.23 86.88,63.28 87.36,62.40 C86.28,65.19 86.00,70.37 86.00,81.28 C86.00,93.08 86.10,96.55 87.01,98.29 C86.32,97.13 85.97,95.57 85.94,93.60 C85.88,90.02 85.75,89.80 84.93,91.84 C84.42,93.13 84.26,94.60 84.57,95.12 C84.89,95.63 84.85,97.39 84.49,99.02 L 83.84 102.00 L 75.01 102.00 C65.88,102.00 65.67,101.88 67.46,97.75 C67.87,96.79 67.86,95.21 67.42,94.25 C66.77,92.84 66.54,93.08 66.23,95.50 C66.18,95.82 66.12,96.16 66.03,96.51 C66.42,93.97 66.50,89.46 66.50,80.48 C66.50,72.61 66.47,68.27 66.21,65.56 C66.31,65.83 66.43,66.00 66.58,66.00 C66.89,66.00 67.03,64.76 66.87,63.25 ZM 40.00 102.70 C40.00,100.51 37.81,98.91 36.40,100.08 C36.33,100.14 36.26,100.19 36.18,100.24 C37.26,97.26 37.27,68.69 36.11,67.45 C35.86,67.18 35.54,66.65 35.24,66.03 C36.05,67.68 37.00,68.54 37.00,67.27 C37.00,64.45 40.22,63.00 46.50,63.00 C56.10,63.00 56.26,63.30 55.64,80.40 C55.16,93.45 53.87,99.97 51.75,99.99 C51.34,100.00 51.00,100.43 51.00,100.95 C51.00,101.29 51.42,101.42 52.13,101.33 C50.73,101.69 49.05,102.11 47.38,102.49 C42.06,103.73 37.17,104.19 32.85,103.90 C33.29,103.91 33.76,103.91 34.25,103.92 C38.34,103.98 40.00,103.63 40.00,102.70 ZM 97.30 73.69 C95.54,72.48 93.62,70.46 93.05,69.20 C91.08,64.90 93.91,52.96 96.87,53.05 C99.53,53.12 103.54,55.29 107.39,58.72 C112.35,63.15 112.42,67.78 107.60,72.60 C103.68,76.52 101.75,76.73 97.30,73.69 ZM 40.30 34.09 C41.91,33.99 43.74,34.89 45.46,36.74 C47.49,38.93 48.00,39.13 48.00,37.74 C48.00,36.78 47.52,36.00 46.94,36.00 C46.36,36.00 46.14,35.58 46.46,35.07 C46.77,34.56 46.49,33.80 45.83,33.40 C45.00,32.88 45.22,32.43 46.57,31.90 C47.61,31.49 47.53,31.26 46.18,31.14 C47.01,31.17 47.88,31.19 48.77,31.20 C49.98,31.21 51.08,31.24 52.06,31.29 C51.67,31.40 51.70,31.55 52.25,31.69 C54.07,32.16 54.29,32.80 54.12,37.00 C54.02,39.36 54.07,39.38 54.93,37.39 C55.40,36.28 56.49,35.10 57.40,34.68 C57.29,34.78 57.16,34.88 57.03,34.98 C55.22,36.34 54.90,37.63 54.88,43.59 C54.88,44.60 54.86,45.53 54.83,46.36 C54.59,45.37 54.08,44.58 53.46,44.35 C51.61,43.64 50.92,44.19 51.26,46.40 C49.96,42.16 48.80,40.31 45.88,37.20 C43.90,35.07 41.96,34.02 40.30,34.09 ZM 33.99 29.76 C34.03,28.27 30.02,25.90 24.80,25.32 C27.78,25.65 30.78,26.41 31.53,27.03 C32.68,27.98 32.86,27.65 32.54,25.15 C32.09,21.60 34.00,19.55 36.90,20.47 C41.07,21.79 40.11,29.79 35.91,28.69 C34.70,28.37 34.00,28.70 34.00,29.59 C34.00,29.65 34.00,29.71 33.99,29.76 ZM 16.58 36.98 C21.06,33.35 26.21,31.05 30.75,31.02 C26.57,31.05 21.13,33.51 16.58,36.98 ZM 109.41 73.92 C110.01,73.21 110.47,72.57 110.84,71.92 C110.07,73.66 108.95,74.98 107.49,75.84 C108.10,75.38 108.71,74.76 109.41,73.92 ZM 33.55 100.08 C32.13,99.36 30.64,97.78 29.74,95.77 C30.91,97.75 32.30,99.28 33.55,100.08 ZM 91.36 62.46 C91.36,63.16 91.33,63.94 91.28,64.75 C91.16,66.80 91.21,68.53 91.43,69.83 C91.10,68.30 91.02,66.18 91.22,64.07 C91.28,63.47 91.32,62.94 91.36,62.46 ZM 44.65 31.07 C44.57,31.07 44.49,31.07 44.42,31.07 C42.17,31.03 40.03,30.70 39.66,30.33 C39.22,29.89 39.47,29.17 40.09,28.45 C39.44,29.25 39.27,30.05 39.96,30.47 C40.35,30.72 42.21,30.94 44.65,31.07 ZM 89.28 59.85 C89.85,59.32 90.41,59.00 90.89,59.00 C90.96,59.00 91.02,59.08 91.08,59.24 C90.77,58.98 90.23,59.21 89.40,59.77 C89.36,59.79 89.32,59.82 89.28,59.85 ZM 93.09 73.01 C94.11,74.04 95.26,74.88 96.50,75.52 C95.16,74.86 93.99,74.00 93.09,73.01 ZM 82.88 52.47 C83.65,52.18 84.26,52.06 84.73,52.09 C84.29,52.13 83.69,52.26 82.88,52.47 ZM 64.77 60.86 C64.62,60.63 64.45,60.40 64.27,60.15 C63.99,59.77 63.74,59.43 63.53,59.12 L 63.95 59.67 C64.24,60.04 64.52,60.44 64.77,60.86 ZM 54.35 100.73 L 55.67 100.27 C55.59,100.32 55.52,100.35 55.44,100.39 C55.23,100.47 54.85,100.58 54.35,100.73 ZM 66.00 64.00 C65.92,63.56 65.82,63.18 65.72,62.83 C65.87,63.27 65.97,63.68 66.00,64.00 ZM 5.70 52.48 C5.84,52.08 6.00,51.68 6.17,51.26 ZM 22.21 23.11 C22.82,23.05 23.53,23.02 24.34,23.00 C23.53,23.02 22.82,23.05 22.21,23.11 ZM 102.74 77.00 C102.88,77.00 103.01,77.00 103.14,77.00 C103.03,77.00 102.92,77.00 102.82,77.00 C102.79,77.00 102.77,77.00 102.74,77.00 Z" fill="rgb(189,155,109)"/>
<path d="M 0.00 57.50 L 0.00 0.00 L 57.00 0.00 L 114.00 0.00 L 114.00 57.50 L 114.00 115.00 L 57.00 115.00 L 0.00 115.00 L 0.00 57.50 ZM 47.38 102.49 C50.95,101.66 54.58,100.72 55.44,100.39 C56.76,99.88 57.00,97.39 57.03,84.14 C57.06,71.97 57.39,68.07 58.53,66.56 C61.70,62.37 60.77,62.00 46.93,62.00 L 33.87 62.00 L 34.55 64.25 C34.92,65.49 35.62,66.93 36.11,67.45 C37.32,68.75 37.26,99.72 36.04,100.47 C34.40,101.49 31.19,98.76 29.07,94.54 C25.93,88.29 24.79,81.55 24.66,68.50 C24.51,53.88 26.32,44.07 30.24,38.25 C33.18,33.87 35.98,32.67 36.03,35.75 C36.06,37.42 36.13,37.42 37.39,35.75 C39.40,33.10 42.56,33.64 45.88,37.20 C49.32,40.87 50.31,42.78 51.98,48.91 C53.60,54.89 54.86,52.60 54.88,43.59 C54.90,37.63 55.22,36.34 57.03,34.98 C60.34,32.48 57.68,31.26 48.77,31.20 C44.52,31.17 40.55,30.84 39.96,30.47 C38.23,29.41 41.93,26.01 44.90,25.93 C46.33,25.89 48.40,25.49 49.50,25.04 C51.81,24.09 50.80,23.53 44.97,22.57 C40.95,21.91 38.01,19.03 37.98,15.74 C37.98,14.51 37.55,12.83 37.03,12.02 C36.33,10.91 35.92,11.62 35.42,14.80 C34.51,20.50 31.30,23.00 24.92,23.00 C18.15,23.00 17.94,24.61 24.63,25.30 C32.47,26.11 37.68,30.98 30.75,31.02 C22.53,31.08 12.33,38.56 7.72,47.92 C4.81,53.82 4.47,55.47 4.16,65.22 C3.85,75.02 4.07,76.65 6.57,83.19 C9.78,91.60 15.65,97.99 23.50,101.65 C29.49,104.44 37.72,104.73 47.38,102.49 ZM 89.42 102.13 C89.71,101.66 89.06,100.46 87.98,99.48 C86.16,97.84 86.00,96.35 86.00,81.28 C86.00,65.38 86.59,61.64 89.40,59.77 C91.45,58.39 91.71,58.99 91.22,64.07 C90.93,67.06 91.23,70.06 91.94,71.40 C93.70,74.68 98.21,77.00 102.82,77.00 C108.67,77.00 112.00,72.82 112.00,65.47 C112.00,62.51 111.51,59.01 110.90,57.69 C108.46,52.33 97.38,50.25 91.23,54.00 C87.10,56.52 86.00,56.52 86.00,54.00 C86.00,51.65 84.52,51.48 80.85,53.40 C79.39,54.16 75.34,55.09 71.85,55.46 C61.71,56.55 61.64,56.59 64.27,60.15 C66.38,63.01 66.50,64.14 66.50,80.48 C66.50,95.57 66.28,98.04 64.75,99.73 C63.78,100.79 63.30,101.96 63.66,102.33 C64.66,103.33 88.79,103.14 89.42,102.13 ZM 24.93 7.11 C22.50,5.12 22.50,5.12 20.50,7.12 C18.61,9.01 18.60,9.19 20.25,10.42 C21.21,11.13 22.00,12.34 22.00,13.09 C22.00,13.92 23.05,13.40 24.68,11.78 L 27.35 9.10 L 24.93 7.11 Z" fill="rgb(253,253,252)"/>
</g>
</svg>